<?xml version="1.0" encoding="UTF-8" standalone="no"?>
<svg width="405px" height="410px" viewBox="0 0 405 410" version="1.1" xmlns="http://www.w3.org/2000/svg" xmlns:xlink="http://www.w3.org/1999/xlink">
    <!-- Generator: Sketch 3.6.1 (26313) - http://www.bohemiancoding.com/sketch -->
    <title>currents</title>
    <desc>Created with Sketch.</desc>
    <defs></defs>
    <g id="Page-1" stroke="none" stroke-width="1" fill="none" fill-rule="evenodd">
        <g id="currents" fill="#FFFFFF">
            <g id="Page-1">
                <path d="M332.453939,143.780019 C349.853252,83.5558222 273.772349,6.16787746 188.06717,6.16787746 C82.6345703,6.16787746 -1.00024847,90.5549031 0.0090393476,195.494331 C1.24576095,324.081105 96.5677391,433.617751 241.378336,405.579915 C146.81975,394.764843 99.2336281,355.533819 75.2914072,313.79214 C107.752661,348.010031 154.922789,366.988664 206.183716,366.988664 C300.783604,366.988664 387.002316,302.030539 403.020985,196.583505 C418.703976,93.3461362 339.013316,6.83003295 240.597855,0.000466445156 C239.002094,-0.110271613 304.528722,19.4869446 335.594269,69.1192593 C366.659819,118.751577 363.717819,148.87 363.717819,161.763083 C363.717819,248.301625 293.417439,318.454981 206.18371,318.454981 C201.912663,318.454981 197.674626,318.285901 193.47754,317.95418 C192.87903,317.927251 192.27964,317.896057 191.679389,317.860561 C111.556224,313.122493 49.4656484,250.72582 49.4656484,175.784487 C49.4656484,100.843153 113.13691,40.0911993 191.679389,40.0911993 C258.667456,40.0911993 316.799889,84.2834283 332.453939,143.780019 L332.453939,143.780019 L332.453939,143.780019 L332.453939,143.780019 Z" id="Combined-Shape"></path>
            </g>
        </g>
    </g>
</svg>