<?xml version="1.0" encoding="UTF-8" standalone="no"?>
<svg width="500px" height="507px" viewBox="0 0 500 507" version="1.1" xmlns="http://www.w3.org/2000/svg" xmlns:xlink="http://www.w3.org/1999/xlink">
    <!-- Generator: Sketch 3.6.1 (26313) - http://www.bohemiancoding.com/sketch -->
    <title>Combined-Shape</title>
    <desc>Created with Sketch.</desc>
    <defs></defs>
    <g id="Page-1" stroke="none" stroke-width="1" fill="none" fill-rule="evenodd">
        <path d="M410.436962,177.796267 C431.917595,103.323907 337.990554,7.62710701 232.181691,7.62710701 C102.017988,7.62710701 -1.23487466,111.978868 0.0111596884,241.745429 C1.53797648,400.753952 119.219431,536.205365 297.997946,501.534188 C181.25895,488.160428 122.510652,439.647918 92.9523546,388.030768 C133.027976,430.344111 191.262702,453.812811 254.547797,453.812811 C371.337783,453.812811 477.780637,373.486544 497.556771,243.092285 C516.918489,115.430466 418.534958,8.4459188 297.034389,0.000576799254 C295.064313,-0.136360263 375.961385,24.0972705 414.313912,85.4718646 C452.666443,146.846462 449.034344,184.090464 449.034344,200.033861 C449.034344,307.046156 362.243752,393.796769 254.54779,393.796769 C249.274893,393.796769 244.042748,393.587687 238.86116,393.177486 C238.122259,393.144186 237.382271,393.105612 236.641221,393.061718 C137.723733,387.202693 61.0687017,310.04388 61.0687017,217.372524 C61.0687017,124.701167 139.675198,49.5761903 236.641221,49.5761903 C319.342538,49.5761903 391.110974,104.223654 410.436962,177.796267 L410.436962,177.796267 L410.436962,177.796267 Z" id="Combined-Shape" fill="#FFFFFF"></path>
    </g>
</svg>