<?xml version="1.0" encoding="UTF-8" standalone="no"?>
<svg width="253px" height="219px" viewBox="0 0 253 219" version="1.1" xmlns="http://www.w3.org/2000/svg" xmlns:xlink="http://www.w3.org/1999/xlink">
    <!-- Generator: Sketch 3.6.1 (26313) - http://www.bohemiancoding.com/sketch -->
    <title>Group</title>
    <desc>Created with Sketch.</desc>
    <defs></defs>
    <g id="Page-1" stroke="none" stroke-width="1" fill="none" fill-rule="evenodd">
        <g id="final" transform="translate(-335.000000, -378.000000)">
            <g id="Group" transform="translate(337.000000, 378.000000)">
                <path d="M208.244268,197.0665 C208.244268,197.0665 208.605149,189.186293 205.530963,186.632683 C202.456776,184.079072 164.019418,152.338645 160.320399,149.562259 C158.788839,148.41271 192.112349,135.4752 193.34964,133.267027 C194.379252,131.429497 193.349641,96.5093439 193.349641,94.4158163 C193.349641,92.3222888 219.897005,149.562259 219.897005,149.562259" id="Path-168" stroke="#FFFFFF" stroke-width="3.34821429"></path>
                <path d="M182.285993,204.700532 C182.285993,204.700532 182.791998,198.253994 179.493243,195.456778 C167.157978,184.996951 120.185898,147.425991 119.51389,146.944747 C118.841881,146.463503 111.469417,142.943194 109.635118,142.943194 C107.130863,142.943194 89.2822775,159.419279 88.0448255,159.419279 C86.8073735,159.419279 23.28405,143.692484 20.2047049,142.943192 C17.3358045,142.245108 0.471267952,110.132337 0.471267951,105.658456 C0.47126795,101.833494 5.63156859,80.4661529 8.91492792,71.5089476 C9.07867978,71.0622225 42.3691609,32.4654394 46.4422528,29.4481479 C50.5153447,26.4308564 110.265978,4.19984678 110.265978,4.19984678 L196.232846,20.7613448" id="Path-163" stroke="#FFFFFF" stroke-width="3.34821429"></path>
                <path d="M189.161891,201.948442 C189.161891,201.948442 188.962648,195.531735 186.360073,193.482155 C183.757498,191.432575 124.629435,143.161537 123.177312,142.181079 C121.72519,141.200622 104.028188,134.131155 103.400448,133.910417 C102.772709,133.689679 65.8139936,127.682403 65.8139936,127.289468 C66.8801791,123.931604 90.8678685,48.2239661 88.9629712,47.347405 C87.0220864,46.4542838 45.5708772,29.79481 45.5708772,29.79481 C45.5708772,29.79481 65.3118884,126.99182 64.6787551,127.956985 C64.0456218,128.922149 8.59628925,71.1912856 8.59628925,71.1912856" id="Path-164" stroke="#FFFFFF" stroke-width="3.34821429"></path>
                <path d="M195.773641,199.211712 C195.773641,199.211712 195.457225,193.739847 193.325257,191.889233 C191.193289,190.038619 128.816504,139.406956 127.506306,138.34204 C126.471491,137.500952 143.369002,120.431601 143.760876,119.210466 C144.152749,117.989331 175.746893,40.6983333 175.137895,39.9622129" id="Path-164" stroke="#FFFFFF" stroke-width="3.34821429"></path>
                <path d="M202.102273,198.86856 C202.102273,198.86856 202.290677,191.807055 199.986545,189.842935 C197.682412,187.878814 143.352336,143.064423 141.540614,141.670028 C140.68622,141.012443 154.82857,126.860817 155.536758,125.164269 C156.87931,121.948029 195.823595,19.7498628 195.823595,19.7498628" id="Path-164" stroke="#FFFFFF" stroke-width="3.34821429"></path>
                <path d="M175.936632,162.247359 C177.004691,161.066614 198.765678,151.439627 200.808893,150.68987 C203.122721,149.840811 218.138844,149.870254 219.890167,149.870259 C221.64149,149.870264 249.27548,99.9953395 249.275478,97.1149789 C249.275477,95.7420256 244.893866,67.1269735 244.128713,65.4781639 C243.558337,64.2490741 220.882101,38.9824283 219.224781,36.7035129 C217.567461,34.4245974 194.326263,97.8185379 194.326263,97.8185379 L248.182792,98.4446983" id="Path-164" stroke="#FFFFFF" stroke-width="3.34821429"></path>
                <path d="M144.173989,119.579402 C144.173989,119.579402 89.4062105,47.6558953 89.4062105,47.5504639 C89.4062105,46.6645024 173.608687,42.1412594 174.750849,40.8546982 C175.89301,39.5681371 111.533777,5.15618767 109.600928,5.87037203 C107.66808,6.58455638 89.8077413,47.5504639 89.8077413,47.5504639" id="Path-346" stroke="#FFFFFF" stroke-width="3.34821429"></path>
                <ellipse id="Oval-20" fill="#FFFFFF" cx="46.3169643" cy="29.6096939" rx="5.58035714" ry="5.58673469"></ellipse>
                <ellipse id="Oval-20" fill="#FFFFFF" cx="8.92857143" cy="71.5102041" rx="5.58035714" ry="5.58673469"></ellipse>
                <ellipse id="Oval-20" fill="#FFFFFF" cx="65.2901786" cy="125.701531" rx="5.58035714" ry="5.58673469"></ellipse>
                <ellipse id="Oval-20" fill="#FFFFFF" cx="110.491071" cy="5.58673469" rx="5.58035714" ry="5.58673469"></ellipse>
                <ellipse id="Oval-20" fill="#FFFFFF" cx="243.861607" cy="65.3647959" rx="5.58035714" ry="5.58673469"></ellipse>
                <path d="M173.549107,45.8112245 C176.631053,45.8112245 179.129464,43.3099582 179.129464,40.2244898 C179.129464,37.1390214 176.631053,34.6377551 173.549107,34.6377551 C170.467161,34.6377551 167.96875,37.1390214 167.96875,40.2244898 C167.96875,43.3099582 170.467161,45.8112245 173.549107,45.8112245 Z" id="Oval-20" fill="#FFFFFF"></path>
                <ellipse id="Oval-20" fill="#FFFFFF" cx="90.4017857" cy="47.4872449" rx="5.58035714" ry="5.58673469"></ellipse>
                <ellipse id="Oval-20" fill="#FFFFFF" cx="219.308036" cy="37.4311224" rx="5.58035714" ry="5.58673469"></ellipse>
                <path d="M195.3125,102.795918 C198.394446,102.795918 200.892857,100.294652 200.892857,97.2091837 C200.892857,94.1237153 198.394446,91.622449 195.3125,91.622449 C192.230554,91.622449 189.732143,94.1237153 189.732143,97.2091837 C189.732143,100.294652 192.230554,102.795918 195.3125,102.795918 Z" id="Oval-20" fill="#FFFFFF"></path>
                <ellipse id="Oval-20" fill="#FFFFFF" cx="194.754464" cy="21.2295918" rx="5.58035714" ry="5.58673469"></ellipse>
                <path d="M173.549107,203.454304 L220.584066,190.836921 L224.628114,205.946761 L177.593155,218.564144 L173.549107,203.454304 L173.549107,203.454304 Z" id="Rectangle-187" fill="#149882"></path>
                <path d="M244.605885,65.2602393 L195.076519,97.0586194" id="Path-395" stroke="#FFFFFF" stroke-width="3.34821429"></path>
                <path id="Path-396" stroke="#979797" stroke-width="0.558035714" d=""></path>
                <path id="Path-406" stroke="#979797" stroke-width="0.558035714" d=""></path>
            </g>
        </g>
    </g>
</svg>