<?xml version="1.0" encoding="UTF-8"?>
<svg width="150px" height="154px" viewBox="0 0 150 154" version="1.1" xmlns="http://www.w3.org/2000/svg" xmlns:xlink="http://www.w3.org/1999/xlink">
    <!-- Generator: Sketch 40.3 (33839) - http://www.bohemiancoding.com/sketch -->
    <title>CUSDLogoTypeGray</title>
    <desc>Created with Sketch.</desc>
    <defs>
        <rect id="path-1" x="0" y="0" width="150" height="154"></rect>
        <rect id="path-3" x="0.155416667" y="0.153786111" width="32.2872917" height="60.1874778"></rect>
        <rect id="path-5" x="0" y="0" width="150" height="154"></rect>
        <rect id="path-7" x="0.18" y="0.128119444" width="25.8558333" height="60.1876917"></rect>
        <rect id="path-9" x="0" y="0" width="150" height="154"></rect>
        <rect id="path-11" x="0.203958333" y="0.128119444" width="33.861875" height="60.1876917"></rect>
    </defs>
    <g id="Page-1" stroke="none" stroke-width="1" fill="none" fill-rule="evenodd">
        <g id="CUSDLogoTypeGray">
            <rect id="Rectangle-path" fill="#80C26C" x="2.01270833" y="2.12135" width="72.9604167" height="74.9068833"></rect>
            <rect id="Rectangle-path" fill="#83C2BA" x="74.973125" y="2.12135" width="72.96" height="74.9068833"></rect>
            <rect id="Rectangle-path" fill="#3F9A8E" x="2.01270833" y="77.0282333" width="72.9604167" height="74.9060278"></rect>
            <rect id="Rectangle-path" fill="#3FAA6D" x="74.973125" y="77.0282333" width="72.96" height="74.9060278"></rect>
            <g id="Group">
                <g id="Clipped">
                    <mask id="mask-2" fill="white">
                        <use xlink:href="#path-1"></use>
                    </mask>
                    <g id="SVGID_1_"></g>
                    <g mask="url(#mask-2)">
                        <g transform="translate(95.208333, 16.683333)">
                            <mask id="mask-4" fill="white">
                                <use xlink:href="#path-3"></use>
                            </mask>
                            <g id="SVGID_3_" stroke="none" fill="none"></g>
                            <path d="M28.65875,31.7522333 C28.0310417,33.3243167 27.134375,34.6718167 25.968125,35.7947333 C24.8010417,36.91765 23.39375,37.793525 21.7460417,38.4223583 C20.0979167,39.0511917 18.268125,39.3656083 16.255625,39.3656083 C14.2135417,39.3656083 12.37625,39.0511917 10.743125,38.4223583 C9.10916667,37.793525 7.724375,36.91765 6.586875,35.7947333 C5.449375,34.6718167 4.574375,33.3243167 3.96166667,31.7522333 C3.349375,30.18015 3.043125,28.4361 3.043125,26.5194417 L3.043125,6.71119167 L10.4804167,6.71119167 L10.4804167,25.8906083 C10.4804167,26.759425 10.5897917,27.5826833 10.8085417,28.361025 C11.0272917,29.1400083 11.3622917,29.8362167 11.8147917,30.44965 C12.2666667,31.063725 12.8647917,31.5501083 13.6085417,31.9094417 C14.3520833,32.268775 15.2491667,32.4484417 16.2991667,32.4484417 C17.3491667,32.4484417 18.2460417,32.268775 18.9897917,31.9094417 C19.7333333,31.5501083 20.3385417,31.063725 20.8054167,30.44965 C21.2714583,29.8362167 21.6072917,29.1400083 21.8116667,28.361025 C22.0154167,27.5826833 22.1179167,26.759425 22.1179167,25.8906083 L22.1179167,6.71119167 L29.5991667,6.71119167 L29.5991667,26.5194417 C29.5991667,28.4361 29.2854167,30.18015 28.65875,31.7522333 L28.65875,31.7522333 Z" id="Shape" stroke="none" fill="#F2F3F3" fill-rule="evenodd" mask="url(#mask-4)"></path>
                        </g>
                    </g>
                </g>
                <g id="Clipped">
                    <mask id="mask-6" fill="white">
                        <use xlink:href="#path-5"></use>
                    </mask>
                    <g id="SVGID_1_"></g>
                    <g mask="url(#mask-6)">
                        <g transform="translate(25.416667, 90.261111)">
                            <mask id="mask-8" fill="white">
                                <use xlink:href="#path-7"></use>
                            </mask>
                            <g id="SVGID_5_" stroke="none" fill="none"></g>
                            <path d="M19.73625,14.9501917 C19.094375,14.112175 18.255625,13.4454833 17.220625,12.9514 C16.185,12.4571028 15.18625,12.210275 14.22375,12.210275 C13.7275,12.210275 13.224375,12.2551917 12.714375,12.345025 C12.20375,12.4348583 11.744375,12.6074667 11.33625,12.8615667 C10.9275,13.1160944 10.585,13.4452694 10.308125,13.8497333 C10.0304167,14.2539833 9.8925,14.770525 9.8925,15.3991444 C9.8925,15.9383583 10.001875,16.3873111 10.220625,16.7468583 C10.439375,17.1061917 10.76,17.4203944 11.183125,17.6898944 C11.605625,17.9596083 12.10875,18.2064361 12.6925,18.4312333 C13.275625,18.6558167 13.931875,18.8881 14.66125,19.1274417 C15.71125,19.486775 16.805,19.8839667 17.9425,20.3175194 C19.08,20.7519278 20.115,21.3283583 21.04875,22.0468111 C21.981875,22.7654778 22.755,23.6567528 23.3675,24.7193528 C23.98,25.7828083 24.28625,27.1076361 24.28625,28.6944778 C24.28625,30.5213028 23.958125,32.1013 23.301875,33.4331861 C22.645625,34.7659278 21.763125,35.8663861 20.655,36.7345611 C19.54625,37.6033778 18.2775,38.2469694 16.84875,38.6659778 C15.419375,39.0849861 13.94625,39.2948111 12.43,39.2948111 C10.213125,39.2948111 8.069375,38.8976194 5.99875,38.1045194 C3.9275,37.3114194 2.206875,36.1808028 0.83625,34.713525 L5.73625,29.593025 C6.494375,30.551675 7.493125,31.3526889 8.733125,31.9960667 C9.9725,32.6403 11.205,32.961775 12.43,32.961775 C12.98375,32.961775 13.52375,32.9021 14.04875,32.7821083 C14.57375,32.6627583 15.033125,32.4676917 15.426875,32.1981917 C15.820625,31.9286917 16.13375,31.5695722 16.3675,31.1201917 C16.600625,30.671025 16.7175,30.1322389 16.7175,29.5031917 C16.7175,28.9045167 16.57125,28.395675 16.28,27.976025 C15.988125,27.5570167 15.5725,27.175225 15.033125,26.83065 C14.493125,26.4869306 13.8225,26.1723 13.020625,25.8874 C12.218125,25.6031417 11.306875,25.296425 10.28625,24.9666083 C9.294375,24.6374333 8.324375,24.2479417 7.376875,23.798775 C6.42875,23.3496083 5.583125,22.7733917 4.839375,22.0694833 C4.095625,21.3662167 3.4975,20.5128 3.045625,19.5092333 C2.593125,18.5063083 2.3675,17.2856444 2.3675,15.848525 C2.3675,14.0820167 2.7175,12.5696083 3.4175,11.3119417 C4.1175,10.054275 5.03625,9.02119167 6.17375,8.21269167 C7.31125,7.40419167 8.594375,6.81321667 10.02375,6.43848333 C11.4525,6.06439167 12.89625,5.877025 14.355,5.877025 C16.105,5.877025 17.89125,6.20684167 19.714375,6.86519167 C21.536875,7.52418333 23.13375,8.49759167 24.505,9.78456111 L19.73625,14.9501917 L19.73625,14.9501917 Z" id="Shape" stroke="none" fill="#F2F3F3" fill-rule="evenodd" mask="url(#mask-8)"></path>
                        </g>
                    </g>
                </g>
                <g id="Clipped">
                    <mask id="mask-10" fill="white">
                        <use xlink:href="#path-9"></use>
                    </mask>
                    <g id="SVGID_1_"></g>
                    <g mask="url(#mask-10)">
                        <g transform="translate(94.375000, 90.261111)">
                            <mask id="mask-12" fill="white">
                                <use xlink:href="#path-11"></use>
                            </mask>
                            <g id="SVGID_7_" stroke="none" fill="none"></g>
                            <path d="M32.31625,22.4964056 C32.31625,25.2812389 31.813125,27.6842806 30.806875,29.7055306 C29.8008333,31.7265667 28.473125,33.3886972 26.8258333,34.6912806 C25.1777083,35.9938639 23.3183333,36.9525139 21.2477083,37.5659472 C19.1764583,38.1800222 17.0766667,38.4867389 14.9477083,38.4867389 L3.39791667,38.4867389 L3.39791667,6.68573889 L14.5979167,6.68573889 C16.7854167,6.68573889 18.9435417,6.94818056 21.0729167,7.47178056 C23.2016667,7.99602222 25.0979167,8.86419722 26.7604167,10.0769472 C28.4229167,11.2896972 29.7641667,12.9146111 30.7854167,14.9504056 C31.805625,16.9870556 32.31625,19.5023889 32.31625,22.4964056 L32.31625,22.4964056 Z M24.52875,22.4964056 C24.52875,20.6997389 24.244375,19.2104306 23.675625,18.0269833 C23.106875,16.8446056 22.348125,15.9013556 21.400625,15.1974472 C20.4525,14.4941806 19.373125,13.9923972 18.163125,13.6927389 C16.9522917,13.3939361 15.705625,13.2435722 14.4225,13.2435722 L10.70375,13.2435722 L10.70375,31.8388583 L14.2475,31.8388583 C15.58875,31.8388583 16.879375,31.68165 18.119375,31.3672333 C19.35875,31.0528167 20.4525,30.536275 21.400625,29.8176083 C22.348125,29.0991556 23.1066667,28.1409333 23.675625,26.9431556 C24.244375,25.7458056 24.52875,24.2633417 24.52875,22.4964056 L24.52875,22.4964056 Z" id="Shape" stroke="none" fill="#F2F3F3" fill-rule="evenodd" mask="url(#mask-12)"></path>
                        </g>
                    </g>
                </g>
            </g>
            <path d="M39.510625,56.2206944 C30.4977083,56.2206944 23.80375,49.0787306 23.80375,40.0500528 L23.80375,39.9602194 C23.80375,31.0215889 30.3664583,23.6999583 39.7729167,23.6999583 C45.548125,23.6999583 49.0045833,25.6762917 51.8483333,28.5511722 L47.560625,33.6269694 C45.198125,31.4258389 42.7916667,30.0785528 39.7291667,30.0785528 C34.5664583,30.0785528 30.8477083,34.4806 30.8477083,39.8706 L30.8477083,39.9604333 C30.8477083,45.3506472 34.4791667,49.8425278 39.7291667,49.8425278 C43.229375,49.8425278 45.373125,48.4051944 47.779375,46.1591472 L52.0670833,50.6061111 C48.9170833,54.0646944 45.416875,56.2206944 39.510625,56.2206944 L39.510625,56.2206944 Z" id="Shape" fill="#F2F3F3"></path>
            <rect id="Rectangle-path" fill="#F2F3F3" x="0" y="0" width="149.907292" height="4.57230278"></rect>
            <rect id="Rectangle-path" fill="#F2F3F3" x="0" y="149.512397" width="149.9075" height="4.48760278"></rect>
            <rect id="Rectangle-path" fill="#F2F3F3" x="145.587917" y="0" width="4.41208333" height="153.91915"></rect>
            <rect id="Rectangle-path" fill="#F2F3F3" x="0" y="0" width="4.4125" height="153.91915"></rect>
            <rect id="Rectangle-path" fill="#F2F3F3" x="0" y="74.5943917" width="149.907292" height="4.62513333"></rect>
            <rect id="Rectangle-path" fill="#F2F3F3" x="72.2545833" y="0" width="4.50520833" height="153.91915"></rect>
        </g>
    </g>
</svg>