<?xml version="1.0" encoding="UTF-8" standalone="no"?>
<svg width="376px" height="137px" viewBox="0 0 376 137" version="1.1" xmlns="http://www.w3.org/2000/svg" xmlns:xlink="http://www.w3.org/1999/xlink">
    <!-- Generator: Sketch 41 (35326) - http://www.bohemiancoding.com/sketch -->
    <title>Group 5</title>
    <desc>Created with Sketch.</desc>
    <defs></defs>
    <g id="single-page" stroke="none" stroke-width="1" fill="none" fill-rule="evenodd">
        <g id="Group-5" transform="translate(-1.000000, 0.000000)" fill="#FFFFFF">
            <g id="Group" transform="translate(0.848060, 0.000000)">
                <polygon id="Shape" points="27.3288506 36.7531666 43.9597181 39.2309082 54.3892452 23.9515018 33.8120702 15.8300156"></polygon>
                <g transform="translate(14.503351, 48.178308)" id="Shape">
                    <path d="M47.3556906,32.6235973 L46.7919324,35.1013389 L57.2214594,31.6600312 C57.362399,31.3847265 57.5033386,31.1094219 57.6442781,30.8341173 L47.3556906,32.6235973 L47.3556906,32.6235973 Z"></path>
                    <path d="M1.97315377,29.8705511 C2.11409333,30.1458558 2.25503288,30.5588127 2.39597244,30.8341173 L16.0671093,10.7368801 L9.02013154,0.825913856 L0.845637332,27.3928096 C1.268456,28.2187234 1.55033511,29.0446373 1.97315377,29.8705511"></path>
                    <path d="M36.7852239,57.401013 L39.8858941,44.048739 L38.7583777,42.3969113 L11.2751644,51.619616 C12.68456,55.0609238 13.6711369,57.2633607 13.6711369,57.2633607 L36.7852239,57.2633607 L36.7852239,57.401013 Z"></path>
                </g>
                <polygon id="Shape" points="41.140927 43.3604775 26.0603946 41.1580405 25.2147573 43.6357821 33.2483119 54.9232714"></polygon>
                <g transform="translate(18.731538, 46.801785)" id="Shape">
                    <path d="M43.8322017,30.5588127 L54.825487,28.494028 C58.9127341,20.2348895 64.973135,12.5263602 67.9328656,3.30365543 L50.7382399,0.825913856 L43.8322017,30.5588127 L43.8322017,30.5588127 Z"></path>
                    <path d="M43.1275039,55.7491853 L39.3221359,50.3807452 L37.3489821,58.7775361 L41.8590479,58.7775361 C41.7181084,58.7775361 42.2818666,57.6763176 43.1275039,55.7491853"></path>
                    <path d="M0.986576887,38.6802989 L27.3422737,33.7248158 L14.7986533,16.1053202 L0.281879111,37.1661235 C0.563758221,37.7167328 0.704697776,38.1296897 0.986576887,38.6802989"></path>
                </g>
                <polygon id="Shape" points="66.0872283 42.5345636 69.046959 29.5952465 58.7583714 25.6033295 49.0335421 39.9191697"></polygon>
                <path d="M19.4362355,35.6519481 L22.6778453,36.2025574 L29.4429439,14.3158402 L15.7718071,8.94740011 C12.2483182,11.4251417 9.00670842,14.4534925 6.61073598,17.8948002 L19.4362355,35.6519481 L19.4362355,35.6519481 Z" id="Shape"></path>
                <polygon id="Shape" points="52.9798497 82.4537333 55.093943 85.3444318 56.0805199 84.9314749 56.9261572 81.6278195"></polygon>
                <polygon id="Shape" points="46.214751 44.048739 36.067103 58.9151884 51.0066959 79.5630348 57.630855 78.1865117 64.9597119 46.8017852"></polygon>
                <g transform="translate(0.000000, 0.000000)" id="Shape">
                    <path d="M48.0469652,83.4172995 L20.9865706,88.5104349 C22.1140871,90.9881765 23.100664,93.4659181 24.0872408,95.8060073 L50.5838772,86.8586072 L48.0469652,83.4172995 L48.0469652,83.4172995 Z"></path>
                    <path d="M69.7516567,26.4292434 L73.6979643,9.36035704 C72.852327,8.67209549 72.0066896,8.12148625 71.0201127,7.57087702 L60.5905857,22.8502834 L69.7516567,26.4292434 L69.7516567,26.4292434 Z"></path>
                    <path d="M47.6241466,121.546989 L27.1879111,115.490288 L27.1879111,117.555072 C27.1879111,122.372903 28.1744879,126.36482 29.3020044,126.36482 L46.4966301,126.36482 L47.6241466,121.546989 L47.6241466,121.546989 Z"></path>
                    <path d="M4.21476355,22.0243695 C2.52348888,25.3280249 1.39597244,28.906985 0.832214219,32.7612496 L13.3758346,34.5507297 L4.21476355,22.0243695 L4.21476355,22.0243695 Z"></path>
                    <path d="M45.6509928,129.94378 L31.1342186,129.94378 C33.8120702,133.935697 38.604015,136.688743 43.9597181,136.826396 L45.6509928,129.94378 L45.6509928,129.94378 Z"></path>
                    <path d="M70.5972941,43.0851728 L87.9328594,45.7005667 C88.2147385,44.048739 88.4966176,42.259259 88.4966176,40.469779 L88.4966176,37.1661235 L73.4160852,31.2470742 L70.5972941,43.0851728 L70.5972941,43.0851728 Z"></path>
                    <path d="M48.8926026,136.138134 C52.557031,135.036916 55.6577012,132.834479 57.630855,129.806128 L50.4429377,129.806128 L48.8926026,136.138134 L48.8926026,136.138134 Z"></path>
                    <path d="M51.9932728,122.78586 L51.1476355,126.36482 L59.4630692,126.36482 C59.8858879,126.36482 60.167767,125.951863 60.4496461,125.263602 L51.9932728,122.78586 L51.9932728,122.78586 Z"></path>
                    <path d="M12.2483182,69.9273732 L20.1409333,44.3240436 L16.758384,39.6438651 L0.268455997,37.1661235 L0.268455997,40.3321266 C0.691274663,51.8949206 7.03355465,60.8423207 12.2483182,69.9273732"></path>
                    <path d="M61.5771625,117.555072 C61.5771625,112.599589 60.5905857,108.745324 59.4630692,108.745324 L55.3758221,108.745324 L52.8389101,119.757509 L61.2952834,122.235251 C61.436223,120.858728 61.5771625,119.2069 61.5771625,117.555072"></path>
                    <path d="M50.5838772,108.745324 L29.3020044,108.745324 C28.5973066,108.745324 28.0335484,110.121848 27.6107297,112.324284 L48.3288443,118.380986 L50.5838772,108.745324 L50.5838772,108.745324 Z"></path>
                    <path d="M30.5704604,11.0121848 L33.530191,1.37652309 C28.4563671,2.47774157 23.6644222,4.12956928 19.4362355,6.60731085 L30.5704604,11.0121848 L30.5704604,11.0121848 Z"></path>
                    <path d="M60.0268274,88.3727826 L59.3221297,91.2634811 L63.8321954,97.5954874 C65.3825305,93.878875 67.3556843,89.3363488 69.1878985,85.2067795 L60.0268274,88.3727826 L60.0268274,88.3727826 Z"></path>
                    <path d="M38.4630755,0.688261547 L34.798647,12.8016648 L56.362399,21.1984556 L67.0738052,5.50609238 C60.167767,2.20243695 52.2751519,0.412956928 44.3825368,0.412956928 C42.409383,0.275304619 40.4362293,0.412956928 38.4630755,0.688261547"></path>
                    <path d="M77.6442718,12.6640125 L74.120783,28.0810711 L88.2147385,33.5871635 C87.087222,25.0527203 83.1409145,18.0324525 77.6442718,12.6640125"></path>
                </g>
            </g>
            <text id="SUSTAINABLE" font-family="GothamMedium, Gotham Medium" font-size="38" font-weight="normal" line-spacing="20" letter-spacing="-0.422222257">
                <tspan x="91.6457622" y="44.1991063"> SUSTAINABLE</tspan>
            </text>
            <text id="EDUCATION" font-family="GothamMedium, Gotham Medium" font-size="38" font-weight="normal" letter-spacing="-0.422222257">
                <tspan x="96.6457622" y="79.7235531">EDUCATION</tspan>
            </text>
            <text id="GHANA" font-family="GothamMedium, Gotham Medium" font-size="38" font-weight="normal" letter-spacing="-0.422222257">
                <tspan x="82.7900596" y="123.199106">GHANA</tspan>
            </text>
        </g>
    </g>
</svg>